<?xml version="1.0" encoding="UTF-8" standalone="no"?>
<!DOCTYPE svg PUBLIC "-//W3C//DTD SVG 1.1//EN" "http://www.w3.org/Graphics/SVG/1.1/DTD/svg11.dtd">
<svg width="100%" height="100%" viewBox="0 0 64 64" version="1.1" xmlns="http://www.w3.org/2000/svg" xmlns:xlink="http://www.w3.org/1999/xlink" xml:space="preserve" xmlns:serif="http://www.serif.com/" style="fill-rule:evenodd;clip-rule:evenodd;stroke-linejoin:round;stroke-miterlimit:2;">
    <g transform="matrix(1,0,0,1,0,-0.238724)">
        <g id="Prancheta1" transform="matrix(1,0,0,1,0,0.238724)">
            <rect x="0" y="0" width="64" height="64" style="fill:none;"/>
            <clipPath id="_clip1">
                <rect x="0" y="0" width="64" height="64"/>
            </clipPath>
            <g clip-path="url(#_clip1)">
                <g transform="matrix(1.07196,0,0,1,-3.32281,7.49595)">
                    <path d="M4.17,26.917L4.17,22.091L37.145,22.091L37.145,17.61L43.576,24.504L37.145,31.398L37.145,26.917L4.17,26.917Z" style="fill:white;"/>
                </g>
                <g transform="matrix(1,0,0,1,1.1475,-0.238724)">
                    <path d="M19.451,23.239L25.18,23.239L25.18,5.74L55.976,5.74L55.976,58.737L25.18,58.737L25.18,41.239L19.451,41.239L19.451,58.183C19.451,61.525 22.164,64.239 25.506,64.239L55.65,64.239C58.992,64.239 61.705,61.525 61.705,58.183L61.705,6.294C61.705,2.952 58.992,0.239 55.65,0.239L25.506,0.239C22.164,0.239 19.451,2.952 19.451,6.294L19.451,23.239Z" style="fill:white;"/>
                </g>
            </g>
        </g>
    </g>
</svg>
